<svg width="400" height="300" viewBox="0 0 400 300" xmlns="http://www.w3.org/2000/svg">
  <rect width="400" height="300" fill="#EFF6FF"/>

  <!-- ground line -->
  <line x1="50" y1="235" x2="350" y2="235" stroke="#BFDBFE" stroke-width="2"/>

  <!-- city skyline -->
  <rect x="70" y="160" width="55" height="75" rx="4" fill="#BFDBFE"/>
  <rect x="135" y="120" width="65" height="115" rx="4" fill="#93C5FD"/>
  <rect x="210" y="150" width="55" height="85" rx="4" fill="#BFDBFE"/>
  <rect x="275" y="100" width="60" height="135" rx="4" fill="#3B82F6"/>

  <!-- windows -->
  <rect x="145" y="135" width="14" height="14" rx="2" fill="#FFFFFF"/>
  <rect x="176" y="135" width="14" height="14" rx="2" fill="#FFFFFF"/>
  <rect x="145" y="165" width="14" height="14" rx="2" fill="#FFFFFF"/>
  <rect x="176" y="165" width="14" height="14" rx="2" fill="#FFFFFF"/>
  <rect x="290" y="118" width="14" height="14" rx="2" fill="#FFFFFF"/>
  <rect x="312" y="118" width="14" height="14" rx="2" fill="#FFFFFF"/>
  <rect x="290" y="148" width="14" height="14" rx="2" fill="#FFFFFF"/>
  <rect x="312" y="148" width="14" height="14" rx="2" fill="#FFFFFF"/>

  <!-- location pin -->
  <path d="M305 40 C321 40 334 53 334 69 C334 91 305 118 305 118 C305 118 276 91 276 69 C276 53 289 40 305 40 Z" fill="#2563EB"/>
  <circle cx="305" cy="69" r="12" fill="#FFFFFF"/>
</svg>
